# xmcd
#
# Track frame offsets:
#	151
#	13607
#	25653
#	38080
#	50183
#	62789
#	73055
#	86581
#	96760
#	112657
#	124621
#	137463
#	153663
#	165311
#	176005
#	185480
#	198321
#	209460
#	222223
#	231192
#	242888
#	255507
#	266340
#	276527
#	287804
#	300070
#	319202
#
# Disc length: 4469
#
# Revision: 2
# Processed by: cddbd v1.5.1PL0 Copyright (c) Steve Scherf et al.
# Submitted via: CDex 1.40Beta4
# Normalized: r1:TDELIM( - )
#
DISCID=7e11731b
DTITLE=Various Artist - Mom's CD
DYEAR=2002
DGENRE=Country
TTITLE0=Hank Snow - Rhumba Boogie
TTITLE1=Hank Snow - I'm Movin' On
TTITLE2=Hank Snow - A Fool Such As I
TTITLE3=Hank Snow - The Golden Rocket
TTITLE4=Hank Snow - I Don't Hurt Anymore
TTITLE5=Hank Snow - Music Makin' Mama From Memphis
TTITLE6=Hank Snow - With This Ring, I Thee Wed
TTITLE7=Hank Snow - Conscience I'm Guilty
TTITLE8=Hank Snow - Bluebird Island
TTITLE9=Hank Snow - Marriage Vow
TTITLE10=Hank Snow - These Hands
TTITLE11=Hank Snow - My Mother
TTITLE12=Frankie Lane - Wanted Man
TTITLE13=Frankie Lane - Do Not Forsake Me
TTITLE14=Frankie Lane - O. K. Corral
TTITLE15=Frankie Lane - Bowie Knife
TTITLE16=Frankie Lane - Navajo Trail
TTITLE17=Frankie Lane - Wild Goose
TTITLE18=Frankie Lane - Rawhide
TTITLE19=Frankie Lane - City Boy
TTITLE20=Frankie Lane - Cool Water
TTITLE21=Frankie Lane - The 3:10 To Yuma
TTITLE22=Frankie Lane - The Hanging Tree
TTITLE23=Frankie Lane - Mule Train
TTITLE24=Patti Page - Detour
TTITLE25=Harry Belafonte - A Hole In The Bucket
TTITLE26=Tennesse Ernie Ford - Blackberry Boogie
EXTD=YEAR: 2002 ID3G:   2
EXTT0=
EXTT1=
EXTT2=
EXTT3=
EXTT4=
EXTT5=
EXTT6=
EXTT7=
EXTT8=
EXTT9=
EXTT10=
EXTT11=
EXTT12=
EXTT13=
EXTT14=
EXTT15=
EXTT16=
EXTT17=
EXTT18=
EXTT19=
EXTT20=
EXTT21=
EXTT22=
EXTT23=
EXTT24=
EXTT25=
EXTT26=
PLAYORDER=
